<svg id="Layer_3" enable-background="new 0 0 64 64" height="512" viewBox="0 0 64 64" width="512" xmlns="http://www.w3.org/2000/svg"><path d="m6 22h52v6h-52z" fill="#f4b2b0"/><path d="m59 47h2v-2h-2v-2h2v-2h-2v-2h-2v2h-4v-12h5c.552 0 1-.447 1-1v-6c0-.553-.448-1-1-1h-5v-2h1c.552 0 1-.447 1-1v-3.764l1.618-3.236h1.382c.379 0 .725-.214.895-.553l4-8c.181-.361.126-.797-.139-1.103-.266-.305-.689-.423-1.072-.293-7.861 2.621-16.047 3.949-24.333 3.949h-10.702c-8.286 0-16.472-1.328-24.333-3.948-.382-.13-.807-.012-1.071.293-.266.305-.32.741-.14 1.102l4 8c.17.339.516.553.895.553h1.382l1.618 3.236v3.764c0 .553.448 1 1 1h1v2h-5c-.552 0-1 .447-1 1v6c0 .553.448 1 1 1h5v12h-4v-2h-2v2h-2v2h2v2h-2v2h2v14h-4v2h62v-2h-4zm-2 14h-2v-9c0-.553-.448-1-1-1h-1v-4h4zm-40-16h-4v-2h4zm0 2v4h-4v-4zm2 6v8h-8v-8zm1-2h-1v-8h2v-2h-2v-12h26v12h-2v2h2v8h-1c-.552 0-1 .447-1 1v9h-22v-9c0-.553-.448-1-1-1zm27 0v-4h4v4zm0-6v-2h4v2zm-2 8h8v8h-8zm12-10v2h-4v-2zm-6-2h-4v-12h4zm0-20h-4v-2h4zm-40-4v-2h8v2zm9 2c.552 0 1-.447 1-1v-3h22v3c0 .553.448 1 1 1h1v2h-26v-2zm25-2v-2h8v2zm-41.048-13.333c7.366 2.213 14.99 3.333 22.697 3.333h10.702c7.707 0 15.331-1.12 22.697-3.333l-2.666 5.333h-50.764zm50.43 7.333-1 2h-42.764l-1-2zm-41.382 8h4v2h-4zm-6 4h50v4h-50zm6 6h4v12h-4zm-6 14h4v2h-4zm0 4h4v4h-1c-.552 0-1 .447-1 1v9h-2z" fill="#b3404a"/></svg>